<svg xmlns="http://www.w3.org/2000/svg" width="35.03" height="30" viewBox="0 0 35.03 30">
  <metadata><?xpacket begin="﻿" id="W5M0MpCehiHzreSzNTczkc9d"?>
<x:xmpmeta xmlns:x="adobe:ns:meta/" x:xmptk="Adobe XMP Core 5.6-c138 79.159824, 2016/09/14-01:09:01        ">
   <rdf:RDF xmlns:rdf="http://www.w3.org/1999/02/22-rdf-syntax-ns#">
      <rdf:Description rdf:about=""/>
   </rdf:RDF>
</x:xmpmeta>
                                                                                                                                                                                                
                           
<?xpacket end="w"?></metadata>
<defs>
    <style>
      .cls-1 {
        fill: #000000;
        fill-rule: evenodd;
      }
    </style>
  </defs>
  <path class="cls-1" d="M4584.99,995.735a7.556,7.556,0,1,1,5.46,2.326A7.559,7.559,0,0,1,4584.99,995.735Zm5.4-11.45a6.091,6.091,0,0,0-4.36,1.776,6.223,6.223,0,0,0-1.9,4.531,6.32,6.32,0,1,0,6.26-6.307h0ZM4572.4,1013a0.582,0.582,0,0,1-.43-0.18l-4.54-4.72a0.6,0.6,0,0,1,0-.86l15.41-16.648a0.66,0.66,0,0,1,.86-0.062,0.667,0.667,0,0,1,.06.858l-15.04,16.222,3.74,3.92,16.82-14.387,0.06-.061a0.66,0.66,0,0,1,.86.122,0.645,0.645,0,0,1-.12.857l-17.25,14.759a0.551,0.551,0,0,1-.43.18h0Zm4.79-9.18a0.541,0.541,0,0,1-.43-0.19,0.592,0.592,0,0,1,0-.85l4.05-3.862a0.656,0.656,0,0,1,.86,0,0.583,0.583,0,0,1,0,.857l-4.05,3.855a0.528,0.528,0,0,1-.43.19h0Zm-7.84,6.04h-0.01a3.09,3.09,0,1,1-4.38-4.36l10.73-10.7a4.251,4.251,0,1,0-6.02-6l-6.6,6.587,0.8,0.8,6.6-6.587a3.093,3.093,0,0,1,4.38,4.367L4564.2,1004.7a4.24,4.24,0,0,0,2.99,7.24,4.092,4.092,0,0,0,2.88-1.14A1.547,1.547,0,0,0,4569.35,1009.86Z" transform="translate(-4562.97 -983)"/>
</svg>
