<svg width="94" height="94" viewBox="0 0 94 94" fill="none" xmlns="http://www.w3.org/2000/svg">
<path d="M80.2191 60.7695C81.7617 60.7695 82.9734 61.981 82.9734 63.5234V91.246C82.9734 92.7884 81.7617 93.9999 80.2191 93.9999H13.7504C12.2079 93.9999 10.9962 92.7884 10.9962 91.246V63.5234C10.9962 61.981 12.2079 60.7695 13.7504 60.7695L45.5526 44.2461H48.4172L80.2191 60.7695Z" fill="url(#paint0_linear)"/>
<path d="M80.2192 60.7695C81.7617 60.7695 82.9734 61.981 82.9734 63.5234V91.246C82.9734 92.7884 81.7617 93.9999 80.2192 93.9999H46.9848V44.2461H48.417L80.2192 60.7695Z" fill="url(#paint1_linear)"/>
<path d="M69.1891 28H24.7542C23.2117 28 22 29.2115 22 30.7539V47.4609C22 49.0033 23.2117 50.2148 24.7542 50.2148H69.1891C70.7317 50.2148 71.9433 49.0033 71.9433 47.4609V30.7539C71.9433 29.2115 70.7317 28 69.1891 28Z" fill="url(#paint2_linear)"/>
<path d="M71.9565 30.293V47C71.9565 48.5423 70.7448 49.7539 69.2022 49.7539H46.9848V27.5391H69.2022C70.7448 27.5391 71.9565 28.7506 71.9565 30.293Z" fill="url(#paint3_linear)"/>
<path d="M49.739 27.5391V47C49.739 48.5423 48.5273 49.7539 46.9848 49.7539C45.4422 49.7539 44.2306 48.5423 44.2306 47V27.5391H49.739Z" fill="#FEA832"/>
<path d="M71.9565 30.293V47C71.9565 48.5423 70.7448 49.7539 69.2022 49.7539H46.9848V27.5391H69.2022C70.7448 27.5391 71.9565 28.7506 71.9565 30.293Z" fill="url(#paint4_linear)"/>
<path d="M49.739 27.5391V47C49.739 48.5423 48.5274 49.7539 46.9848 49.7539V27.5391H49.739Z" fill="#FE9923"/>
<path d="M66.2644 10.9054C66.2644 13.8248 65.1075 16.6334 63.0142 18.6713C60.9761 20.7642 58.1672 21.9211 55.2475 21.9211H41.4764C36.9042 21.9211 33.2137 18.231 33.2137 13.6593C33.2137 10.4646 35.0867 7.54569 37.9509 6.16874C40.2647 5.06718 42.9087 5.17733 45.2774 6.27871C45.7182 5.39765 46.2136 4.51658 46.985 3.74531C47.0954 3.52481 47.2604 3.3045 47.4809 3.13945C51.6123 -1.04648 58.8831 -1.04648 63.0144 3.13945C65.1075 5.17752 66.2644 7.98631 66.2644 10.9054Z" fill="#FEA832"/>
<path d="M55.2475 21.9211H46.9848V3.74531C47.0952 3.52481 47.2602 3.3045 47.4807 3.13945C51.6121 -1.04648 58.8829 -1.04648 63.0142 3.13945C65.1074 5.17733 66.2644 7.98595 66.2644 10.9053C66.2644 13.8246 65.1074 16.6332 63.0142 18.6711C60.9761 20.7644 58.1672 21.9211 55.2475 21.9211Z" fill="#FE9923"/>
<path d="M69.2022 16.5234H24.7674C20.1952 16.5234 16.5047 20.2135 16.5047 24.7851V30.2929C16.5047 31.8353 17.7163 33.0468 19.2589 33.0468H74.7107C76.2533 33.0468 77.4649 31.8353 77.4649 30.2929V24.7851C77.4649 20.2135 73.7743 16.5234 69.2022 16.5234Z" fill="#E2195B"/>
<path d="M77.4649 24.7851V30.2929C77.4649 31.8353 76.2533 33.0468 74.7107 33.0468H46.9848V16.5234H69.2022C73.7743 16.5234 77.4649 20.2135 77.4649 24.7851Z" fill="#E2195B"/>
<path d="M49.7396 16.5234H44.2311V33.0468H49.7396V16.5234Z" fill="#FEDB41"/>
<path d="M49.7396 16.5234H46.9854V33.0468H49.7396V16.5234Z" fill="#FCBF29"/>
<path d="M19.2589 5.50805H16.5047V2.75415C16.5047 1.23197 15.2728 0.000244141 13.7505 0.000244141C12.2281 0.000244141 10.9962 1.23197 10.9962 2.75415V5.50805H8.242C6.71964 5.50805 5.48777 6.73977 5.48777 8.26195C5.48777 9.78412 6.71964 11.0158 8.242 11.0158H10.9962V13.7697C10.9962 15.2919 12.2281 16.5236 13.7505 16.5236C15.2728 16.5236 16.5047 15.2919 16.5047 13.7697V11.0158H19.2589C20.7813 11.0158 22.0131 9.78412 22.0131 8.26195C22.0131 6.73977 20.7813 5.50805 19.2589 5.50805Z" fill="url(#paint5_linear)"/>
<path d="M85.7282 38.5547C87.2493 38.5547 88.4824 37.3217 88.4824 35.8008C88.4824 34.2798 87.2493 33.0469 85.7282 33.0469C84.207 33.0469 82.9739 34.2798 82.9739 35.8008C82.9739 37.3217 84.207 38.5547 85.7282 38.5547Z" fill="url(#paint6_linear)"/>
<path d="M85.7276 16.5236C81.1714 16.5236 77.4649 12.8176 77.4649 8.26195C77.4649 3.70626 81.1714 0.000244141 85.7276 0.000244141C90.2839 0.000244141 93.9903 3.70626 93.9903 8.26195C93.9903 12.8176 90.2839 16.5236 85.7276 16.5236Z" fill="url(#paint7_linear)"/>
<path d="M41.2307 73.6528C39.365 73.6528 37.8435 75.0592 37.8435 76.7839C37.8435 77.677 38.2433 78.4777 38.8874 79.0423L40.5421 80.5719C40.531 79.8533 40.6532 79.1347 40.9086 78.4572L40.2645 77.8515C39.9313 77.5948 39.7092 77.215 39.7092 76.7839C39.7092 76.0139 40.3867 75.398 41.2085 75.398C41.6971 75.398 42.1413 75.6238 42.4079 75.9626L42.5856 76.1269C43.0742 75.706 43.6184 75.3672 44.1959 75.1208L43.7627 74.7205C43.1408 74.0635 42.2413 73.6528 41.2307 73.6528Z" fill="#E2195B"/>
<path d="M51.5921 75.9726C51.8698 75.6338 52.3029 75.408 52.7915 75.408C53.6244 75.408 54.2908 76.0342 54.2908 76.7939C54.2908 77.225 54.0687 77.6151 53.7355 77.8615L53.0914 78.4569C53.3579 79.1447 53.4912 79.8633 53.4801 80.5819L55.1348 79.0523C55.7789 78.4774 56.1787 77.687 56.1787 76.7939C56.1787 75.0692 54.6572 73.6628 52.7915 73.6628C51.7809 73.6628 50.8814 74.0735 50.2595 74.7202L49.8264 75.1206C50.3927 75.3772 50.9258 75.716 51.4144 76.1266L51.5921 75.9726Z" fill="#E2195B"/>
<path d="M48.7824 84.8012L49.2044 82.512L47.0167 81.4341L44.8289 82.512L45.2509 84.8012L43.4518 83.1895L41.6749 84.0518L42.5411 84.8525C44.3069 86.7004 46.9944 88.9999 46.9944 88.9999L51.581 84.7602L51.5921 84.7499L52.3473 84.0518L50.5815 83.1895L48.7824 84.8012Z" fill="white"/>
<path d="M58 76.8351C58 74.1763 55.6678 72.0205 52.7915 72.0205C51.2145 72.0205 49.793 72.6775 48.838 73.7041L47.8829 74.5869C47.3054 74.5151 46.7168 74.5151 46.1393 74.5869L45.1731 73.6938C44.207 72.657 42.7966 72 41.2085 72C38.3322 72 36 74.1558 36 76.8146C36 78.2107 36.6441 79.4631 37.6769 80.346L41.4528 83.8363L42.3301 82.1835L40.531 80.5615H40.5422L38.8874 79.0422C38.2433 78.4674 37.8435 77.6769 37.8435 76.7838C37.8435 75.0592 39.365 73.6528 41.2307 73.6528C42.2413 73.6528 43.1408 74.0634 43.7627 74.7101L44.1959 75.1105C43.6184 75.3671 43.0742 75.7059 42.5856 76.1165C42.5189 76.1679 42.4634 76.2192 42.3968 76.2705C41.7082 76.9172 41.2196 77.6564 40.9197 78.4571C40.6643 79.1346 40.5422 79.8532 40.5533 80.5718L43.0187 80.9003L44.1292 78.8164L44.5512 81.0954L47.0056 81.4239L49.4599 81.0954L49.893 78.8061L51.0035 80.89L53.469 80.5615C53.4801 79.0114 52.8582 77.4511 51.5699 76.2705C51.048 75.788 50.4483 75.3979 49.8152 75.1208L50.2484 74.7204C50.8703 74.0737 51.7698 73.663 52.7804 73.663C54.6461 73.663 56.1676 75.0694 56.1676 76.7941C56.1676 77.6872 55.7678 78.4879 55.1237 79.0525L53.469 80.5821C53.469 80.5821 53.469 80.5821 53.469 80.5718L51.6921 82.1733L52.5694 83.826L56.3231 80.3562C57.3559 79.4837 58 78.2312 58 76.8351Z" fill="white"/>
<path d="M11.4369 51.2115L0.456701 67.7349C-0.745611 69.6581 0.56889 72.0312 2.73353 72.0312H29.9453C30.8265 72.0312 31.8916 71.5904 32.3872 70.8744L46.9848 50H13.7504C12.814 50 11.9877 50.4408 11.4369 51.2115Z" fill="url(#paint8_linear)"/>
<path d="M93.5494 67.7349L82.5325 51.2115C81.9819 50.4406 81.1554 50 80.2192 50H46.9848L61.5824 70.8744C62.078 71.5904 62.9595 72.0312 63.8407 72.0312H91.2361C93.4005 72.0312 94.7518 69.6581 93.5494 67.7349Z" fill="url(#paint9_linear)"/>
<defs>
<linearGradient id="paint0_linear" x1="25.0405" y1="108.615" x2="68.6053" y2="91.0383" gradientUnits="userSpaceOnUse">
<stop stop-color="#481764"/>
<stop offset="1" stop-color="#832280"/>
</linearGradient>
<linearGradient id="paint1_linear" x1="54.007" y1="108.615" x2="78.3447" y2="103.705" gradientUnits="userSpaceOnUse">
<stop stop-color="#481764"/>
<stop offset="1" stop-color="#832280"/>
</linearGradient>
<linearGradient id="paint2_linear" x1="46.9717" y1="28" x2="46.9717" y2="50.2148" gradientUnits="userSpaceOnUse">
<stop stop-color="#A41947"/>
<stop offset="1" stop-color="#E2195B"/>
</linearGradient>
<linearGradient id="paint3_linear" x1="59.4706" y1="27.5391" x2="59.4706" y2="49.7539" gradientUnits="userSpaceOnUse">
<stop stop-color="#A41947"/>
<stop offset="1" stop-color="#E2195B"/>
</linearGradient>
<linearGradient id="paint4_linear" x1="59.4706" y1="27.5391" x2="59.4706" y2="49.7539" gradientUnits="userSpaceOnUse">
<stop stop-color="#A41947"/>
<stop offset="1" stop-color="#E2195B"/>
</linearGradient>
<linearGradient id="paint5_linear" x1="8.71223" y1="21.3774" x2="19.503" y2="18.3676" gradientUnits="userSpaceOnUse">
<stop stop-color="#481764"/>
<stop offset="1" stop-color="#832280"/>
</linearGradient>
<linearGradient id="paint6_linear" x1="84.0487" y1="40.1726" x2="87.6457" y2="39.1693" gradientUnits="userSpaceOnUse">
<stop stop-color="#481764"/>
<stop offset="1" stop-color="#832280"/>
</linearGradient>
<linearGradient id="paint7_linear" x1="77" y1="17" x2="94" y2="-2.90205e-06" gradientUnits="userSpaceOnUse">
<stop stop-color="#832280"/>
<stop offset="1" stop-color="#E2195B"/>
</linearGradient>
<linearGradient id="paint8_linear" x1="9.16776" y1="78.5029" x2="33.5939" y2="63.9748" gradientUnits="userSpaceOnUse">
<stop stop-color="#AB75C9"/>
<stop offset="1" stop-color="#B21DAE"/>
</linearGradient>
<linearGradient id="paint9_linear" x1="56.1585" y1="78.5029" x2="80.5922" y2="63.9609" gradientUnits="userSpaceOnUse">
<stop stop-color="#AB75C9"/>
<stop offset="1" stop-color="#B21DAE"/>
</linearGradient>
</defs>
</svg>
