<svg xmlns="http://www.w3.org/2000/svg" width="15" height="28">
    <path fill="#FFF" fill-rule="evenodd" d="M14.29.054L10.784.048c-3.938 0-6.482 2.678-6.482 6.823v3.146H.777a.558.558 0 0 0-.551.565v4.558c0 .313.247.565.551.565h3.525v11.502c0 .312.246.565.551.565h4.598a.558.558 0 0 0 .551-.565V15.705h4.121a.558.558 0 0 0 .551-.565l.002-4.558a.573.573 0 0 0-.162-.399.541.541 0 0 0-.39-.166h-4.122V7.35c0-1.282.298-1.933 1.926-1.933h2.361a.56.56 0 0 0 .551-.566V.619a.558.558 0 0 0-.55-.565z"/>
</svg>
