<svg xmlns="http://www.w3.org/2000/svg" width="32" height="43">
    <path fill="#EE2862" fill-rule="evenodd" d="M31.126 43H.874A.865.865 0 0 1 0 42.144V.856C0 .383.391 0 .874 0h22.689c.232 0 .454.09.618.251l7.563 7.409a.85.85 0 0 1 .256.606v33.878a.865.865 0 0 1-.874.856zM24.437 2.925v4.484h4.578l-4.578-4.484zm5.814 6.198h-6.688a.866.866 0 0 1-.874-.857V1.713H1.749v39.574h28.502V9.123zM4.284 38.203H18.23c.483 0 .874.384.874.857a.865.865 0 0 1-.874.856H4.284a.865.865 0 0 1-.874-.856c0-.473.391-.857.874-.857zM16 27.866l-2.617 3.167a.882.882 0 0 1-.68.318H5.421a.876.876 0 0 1-.789-.488.841.841 0 0 1 .109-.908l6.493-7.855-6.493-7.856a.841.841 0 0 1-.109-.908.876.876 0 0 1 .789-.488h7.282c.264 0 .514.117.68.318L16 16.333l2.617-3.167a.882.882 0 0 1 .68-.318h7.282c.337 0 .644.19.789.488a.841.841 0 0 1-.109.908L20.766 22.1l6.493 7.855c.212.257.254.61.109.908a.876.876 0 0 1-.789.488h-7.282a.882.882 0 0 1-.68-.318L16 27.866zm-8.746 1.772h5.032l2.589-3.133-2.516-3.044-5.105 6.177zm17.492-15.076h-5.032l-2.589 3.132 2.516 3.045 5.105-6.177zm-5.032 15.076h5.032l-12.46-15.076H7.254l12.46 15.076zm2.026 8.565h.949c.483 0 .874.384.874.857a.865.865 0 0 1-.874.856h-.949a.865.865 0 0 1-.874-.856c0-.473.391-.857.874-.857z"/>
</svg>
