<svg xmlns="http://www.w3.org/2000/svg" width="20" height="20">
    <path fill="#EE2862" fill-rule="#EE2862" d="M14.375.797c-2.266 0-3.653 2.572-3.667 2.597l-.557 1.054-.135.254L9.3 3.409C9.286 3.385 7.815.797 5.625.797 2.288.797.8 2.356.8 5.852c0 3.531 6.198 10.185 9.199 13.052 3-2.876 9.201-9.546 9.201-13.052 0-3.496-1.488-5.055-4.825-5.055m0-.8C11.58-.003 10 3.022 10 3.022S8.328-.003 5.625-.003C1.828-.003 0 1.905 0 5.852c0 4.935 10 14.151 10 14.151s10-9.246 10-14.151c0-3.947-1.828-5.855-5.625-5.855z"/>
</svg>
