<svg xmlns="http://www.w3.org/2000/svg" width="20" height="20">
    <path fill="#8E99B1" fill-rule="evenodd" d="M14.375.797c3.337 0 4.825 1.559 4.825 5.055 0 3.506-6.201 10.176-9.201 13.052C6.998 16.037.8 9.383.8 5.852.8 2.356 2.288.797 5.625.797c2.19 0 3.661 2.588 3.675 2.612l.716 1.293.692-1.308c.014-.025 1.401-2.597 3.667-2.597m0-.8C11.58-.003 10 3.022 10 3.022S8.328-.003 5.625-.003C1.828-.003 0 1.905 0 5.852c0 4.936 10 14.151 10 14.151s10-9.246 10-14.151c0-3.947-1.828-5.855-5.625-5.855z"/>
</svg>
