<svg xmlns="http://www.w3.org/2000/svg" width="44" height="34" viewBox="0 0 44 34">
    <path fill="#CBCBCB" fill-rule="evenodd" d="M27.86 13.776v-3.611a2.622 2.622 0 0 0-2.624-2.622H8.91a2.623 2.623 0 0 0-2.624 2.622v13.613A2.622 2.622 0 0 0 8.91 26.4h16.326a2.623 2.623 0 0 0 2.624-2.622v-3.576l7.534 3.927c1.282.668 2.32.037 2.32-1.409V11.258c0-1.444-1.039-2.077-2.32-1.409l-7.534 3.927zM0 2.034C0 .911 1.183 0 2.637 0h38.726C42.82 0 44 .912 44 2.034V31.91c0 1.123-1.183 2.034-2.637 2.034H2.637C1.18 33.943 0 33.03 0 31.909V2.034z"/>
</svg>
