<svg width="48" height="34" viewBox="0 0 48 34" fill="none" xmlns="http://www.w3.org/2000/svg">
<rect width="48" height="34" fill="black" fill-opacity="0"/>
<rect width="48" height="34" fill="black" fill-opacity="0"/>
<rect width="48" height="34" fill="black" fill-opacity="0"/>
<path d="M23.9996 23.8L18.0613 18.6455L1.08301 33.0787C1.70015 33.6465 2.53329 34.0001 3.45215 34.0001H44.547C45.4625 34.0001 46.2922 33.6465 46.9059 33.0787L29.9379 18.6455L23.9996 23.8Z" fill="white"/>
<path d="M46.9162 0.92141C46.299 0.350204 45.4693 0 44.547 0H3.45213C2.5367 0 1.70699 0.353604 1.08984 0.928211L23.9996 20.4002L46.9162 0.92141Z" fill="white"/>
<path d="M0 2.98486V31.2324L16.5703 17.2684L0 2.98486Z" fill="white"/>
<path d="M31.4297 17.2689L48 31.2328V2.9751L31.4297 17.2689Z" fill="white"/>
</svg>
