<svg width="13" height="9" viewBox="0 0 13 9" fill="none" xmlns="http://www.w3.org/2000/svg">
<path fill-rule="evenodd" clip-rule="evenodd" d="M12.806 0.178245C12.746 0.121728 12.6748 0.0769174 12.5964 0.0463299C12.518 0.0157425 12.4338 5.7052e-06 12.3489 5.7052e-06C12.264 5.7052e-06 12.18 0.0157425 12.1016 0.0463299C12.0231 0.0769174 11.9519 0.121728 11.8919 0.178245L4.10764 7.51939L1.10665 4.69733C0.9842 4.58319 0.818611 4.51955 0.64631 4.52036C0.474008 4.52118 0.309224 4.58639 0.188 4.70168C0.0667766 4.81697 -0.000878474 4.97287 -1.26516e-05 5.1351C0.000853171 5.29733 0.0700609 5.45258 0.192509 5.56671L3.64595 8.82172C3.70597 8.87824 3.7774 8.9231 3.85583 8.95369C3.93425 8.98428 4.01824 9.00002 4.10313 9.00002C4.18802 9.00002 4.27201 8.98428 4.35043 8.95369C4.42886 8.9231 4.50007 8.87824 4.56009 8.82172L12.806 1.04763C12.8675 0.990971 12.9161 0.923342 12.9494 0.8487C12.9827 0.774058 12.9999 0.693904 12.9999 0.61294C12.9999 0.531976 12.9827 0.451874 12.9494 0.377233C12.9161 0.302591 12.8675 0.234908 12.806 0.178245Z" fill="#E2195B"/>
</svg>
