<svg width="13" height="12" viewBox="0 0 13 12" fill="none" xmlns="http://www.w3.org/2000/svg">
<path fill-rule="evenodd" clip-rule="evenodd" d="M12.8121 3.76782L7.39214 0.067747C7.32598 0.0253608 7.24951 0.00197994 7.17095 0.000120057C7.0924 -0.00173983 7.01444 0.0180416 6.94634 0.057249C6.87825 0.0964563 6.82255 0.153661 6.78472 0.222532C6.74689 0.291403 6.72855 0.36925 6.73199 0.447752V2.35779C5.29651 2.60899 3.96418 3.26913 2.89458 4.25891C1.82498 5.24869 1.06376 6.52601 0.702202 7.93774L0.0220259 10.4478C-0.00978144 10.5431 -0.00710677 10.6466 0.0298384 10.74C0.0667835 10.8334 0.13579 10.9108 0.224174 10.9586C0.312559 11.0064 0.414832 11.0215 0.513237 11.0012C0.611641 10.981 0.699462 10.9266 0.761772 10.8478C2.47177 8.60778 3.66199 6.50776 6.73199 6.07776V7.83777C6.72903 7.91596 6.74792 7.99352 6.78619 8.06177C6.82445 8.13002 6.88053 8.18635 6.94878 8.22461C7.01704 8.26287 7.09472 8.28153 7.1729 8.27856C7.25109 8.2756 7.32698 8.25108 7.39214 8.20776L12.8121 4.51782C12.8702 4.47413 12.9172 4.4175 12.9498 4.35242C12.9823 4.28733 12.9996 4.21557 12.9996 4.14282C12.9996 4.07007 12.9823 3.99831 12.9498 3.93323C12.9172 3.86814 12.8702 3.81151 12.8121 3.76782ZM7.58208 7.01782V5.57776C7.58308 5.51885 7.57176 5.46038 7.54937 5.40588C7.52698 5.35139 7.49384 5.30205 7.45171 5.26086C7.40959 5.21967 7.35973 5.18754 7.30474 5.16638C7.24976 5.14522 7.19076 5.13549 7.13189 5.13782C6.08762 5.21595 5.07201 5.51589 4.15289 6.0177C3.23376 6.51951 2.43221 7.21167 1.80181 8.04785L1.41216 8.56775C2.32216 5.21775 4.6122 3.45775 7.2022 3.19775C7.3095 3.18194 7.40713 3.12754 7.4771 3.04468C7.54708 2.96181 7.58446 2.85623 7.58208 2.7478V1.25781L11.8018 4.13782L7.58208 7.01782Z" fill="#E2195B"/>
</svg>
