<svg xmlns="http://www.w3.org/2000/svg" width="73" height="73">
    <path fill-rule="evenodd" d="M36.5 73C16.374 73 0 56.626 0 36.5S16.374 0 36.5 0 73 16.374 73 36.5 56.626 73 36.5 73zm0-70.788C17.593 2.212 2.212 17.593 2.212 36.5c0 18.907 15.381 34.288 34.288 34.288 18.907 0 34.288-15.381 34.288-34.288 0-18.907-15.381-34.288-34.288-34.288zm11.784 28.88a4.701 4.701 0 1 1 0-9.403 4.701 4.701 0 0 1 0 9.403zm2.807 19.952a1.105 1.105 0 1 1-1.867 1.184 14.93 14.93 0 0 0-12.669-6.968c-5.238 0-10.012 2.663-12.768 7.127a1.111 1.111 0 0 1-1.524.359 1.106 1.106 0 0 1-.361-1.522c3.161-5.119 8.638-8.176 14.651-8.176a17.14 17.14 0 0 1 14.538 7.996zM25.886 31.092a4.701 4.701 0 1 1 0-9.403 4.701 4.701 0 0 1 0 9.403z" opacity=".2"/>
</svg>
