<?xml version="1.0" encoding="utf-8"?>
<!-- Generator: Adobe Illustrator 19.2.0, SVG Export Plug-In . SVG Version: 6.00 Build 0)  -->
<svg version="1.1" id="Layer_1" xmlns="http://www.w3.org/2000/svg" xmlns:xlink="http://www.w3.org/1999/xlink" x="0px" y="0px"
	 viewBox="0 0 24.9 35.5" style="enable-background:new 0 0 24.9 35.5;" xml:space="preserve">
<style type="text/css">
	.st0{fill:#EB2D64;}
</style>
<path id="_107" class="st0" d="M21.4,34.2H3.3c-1.1,0-1.9-0.9-1.9-2v-29c0-1.1,0.8-2,1.9-2h18.2c1.1,0,1.9,0.9,1.9,2v29
	C23.3,33.3,22.5,34.1,21.4,34.2z M3.3,2.5c-0.4,0-0.6,0.3-0.6,0.7c0,0,0,0,0,0v29c0,0.4,0.3,0.7,0.6,0.7c0,0,0,0,0,0h18.2
	c0.4,0,0.6-0.3,0.6-0.7v-29c0-0.4-0.3-0.7-0.6-0.7L3.3,2.5L3.3,2.5z M12.3,31.1c-4.5,0.1-8.3-3.4-8.4-7.9c-0.1-4.5,3.4-8.3,7.9-8.4
	c4.5-0.1,8.3,3.4,8.4,7.9c0,0.1,0,0.2,0,0.3C20.3,27.3,16.8,31,12.3,31.1z M12.3,16c-3.8-0.1-7,2.9-7.1,6.6c-0.1,3.8,2.9,7,6.6,7.1
	c3.8,0.1,7-2.9,7.1-6.6c0-0.1,0-0.1,0-0.2C19,19.2,16.1,16.1,12.3,16z M12.3,12.6c-2.3,0.1-4.2-1.7-4.3-4c-0.1-2.3,1.7-4.2,4-4.3
	c2.3-0.1,4.2,1.7,4.3,4c0,0,0,0.1,0,0.1C16.4,10.8,14.6,12.6,12.3,12.6z M12.3,5.7c-1.6,0-2.8,1.2-2.9,2.7c0,1.6,1.2,2.8,2.7,2.9
	c1.6,0,2.8-1.2,2.9-2.7c0,0,0-0.1,0-0.1C15.1,7,13.9,5.7,12.3,5.7C12.3,5.7,12.3,5.7,12.3,5.7z M12.3,26.9c-2.3,0.1-4.2-1.7-4.3-4
	c-0.1-2.3,1.7-4.2,4-4.3c2.3-0.1,4.2,1.7,4.3,4c0,0,0,0.1,0,0.1C16.4,25,14.6,26.9,12.3,26.9L12.3,26.9z M12.3,20
	c-1.5,0-2.8,1.2-2.9,2.7c0,1.5,1.2,2.8,2.7,2.9s2.8-1.2,2.9-2.7c0,0,0-0.1,0-0.1C15.1,21.3,13.9,20,12.3,20C12.3,20,12.3,20,12.3,20
	L12.3,20z"/>
</svg>
