<svg xmlns="http://www.w3.org/2000/svg" width="19" height="14">
    <path fill-rule="evenodd" d="M18.989 5.36a22.084 22.084 0 0 0-.09-1.493 13.889 13.889 0 0 0-.228-1.612 2.565 2.565 0 0 0-.737-1.346 2.228 2.228 0 0 0-1.32-.634C15.045.093 12.673.002 9.5.002c-3.174 0-5.545.091-7.115.273-.502.058-.94.27-1.314.634a2.579 2.579 0 0 0-.732 1.346 12.42 12.42 0 0 0-.238 1.612 22.084 22.084 0 0 0-.09 1.493C.003 5.754 0 6.3 0 7s.003 1.247.011 1.64c.007.394.037.891.09 1.493.053.601.128 1.139.228 1.613.113.532.358.98.736 1.345a2.23 2.23 0 0 0 1.32.634c1.57.182 3.941.273 7.115.273 3.173 0 5.545-.091 7.114-.273.503-.058.94-.27 1.315-.634a2.58 2.58 0 0 0 .732-1.345c.105-.474.185-1.012.238-1.613.053-.602.083-1.099.09-1.493C18.997 8.247 19 7.7 19 7s-.003-1.246-.011-1.64zm-5.736 2.231L7.825 11.09a.592.592 0 0 1-.361.109.712.712 0 0 1-.329-.088.654.654 0 0 1-.349-.612V3.501c0-.277.116-.481.349-.612.241-.132.47-.124.69.022l5.428 3.499c.212.123.318.32.318.59 0 .27-.106.467-.318.591z" opacity=".702"/>
</svg>
