<svg xmlns="http://www.w3.org/2000/svg" width="18" height="10">
    <path fill-rule="evenodd" d="M17.903 9.033a.99.99 0 0 0-.06-.115c-.313-.548-.909-1.22-1.791-2.017l-.018-.018-.009-.009-.01-.01h-.009c-.4-.371-.653-.62-.759-.749-.194-.243-.237-.489-.132-.739.075-.188.357-.587.844-1.195.256-.323.459-.582.609-.776 1.081-1.4 1.55-2.295 1.405-2.684L17.918.63c-.037-.055-.134-.105-.29-.151-.157-.046-.357-.053-.6-.023l-2.699.019a.364.364 0 0 0-.188.004l-.121.027-.048.023-.037.028a.59.59 0 0 0-.196.255 14.67 14.67 0 0 1-1.003 2.054c-.231.378-.444.705-.637.981a4.637 4.637 0 0 1-.488.612c-.131.131-.25.236-.356.315-.106.079-.187.112-.243.101a23.793 23.793 0 0 1-.16-.037.623.623 0 0 1-.211-.224.97.97 0 0 1-.107-.356 3.666 3.666 0 0 1-.033-.37 6.94 6.94 0 0 1 .005-.438c.006-.189.009-.316.009-.383 0-.231.004-.483.014-.753l.023-.644c.007-.158.01-.325.01-.502 0-.176-.011-.315-.033-.415a1.453 1.453 0 0 0-.098-.292.503.503 0 0 0-.192-.22 1.155 1.155 0 0 0-.314-.123C9.594.045 9.172.006 8.659 0 7.498-.012 6.751.061 6.42.219c-.131.067-.25.158-.356.274-.112.134-.128.206-.047.219.375.054.64.185.797.392l.056.11c.043.079.087.219.131.42.043.2.072.423.084.666.032.444.032.825 0 1.141-.031.316-.061.563-.089.74a1.462 1.462 0 0 1-.239.63.155.155 0 0 1-.047.045.721.721 0 0 1-.253.045c-.087 0-.193-.042-.318-.127a2.212 2.212 0 0 1-.389-.352 4.55 4.55 0 0 1-.454-.625 10.72 10.72 0 0 1-.525-.949l-.15-.265a22.96 22.96 0 0 1-.385-.744 14.1 14.1 0 0 1-.43-.945.599.599 0 0 0-.226-.292L3.534.575a.992.992 0 0 0-.365-.137L.601.456c-.263 0-.44.057-.534.173L.029.684A.285.285 0 0 0 .001.83c0 .067.019.149.056.247A30.12 30.12 0 0 0 1.28 3.56c.44.797.823 1.439 1.148 1.925.325.487.656.947.994 1.379.336.432.56.709.669.83.11.123.195.214.258.275l.234.218c.151.147.37.322.66.526.292.204.613.405.966.602a5.32 5.32 0 0 0 1.232.484c.469.125.925.175 1.369.151h1.077c.219-.019.385-.086.497-.201l.037-.046a.578.578 0 0 0 .07-.169.897.897 0 0 0 .033-.251 2.939 2.939 0 0 1 .061-.707c.047-.21.1-.368.159-.475a1.197 1.197 0 0 1 .362-.401.443.443 0 0 1 .074-.032c.15-.049.327-.002.53.141s.393.32.572.53c.177.21.391.445.641.708.25.261.469.456.656.583l.188.11c.124.073.287.14.487.201s.374.076.525.045l2.399-.036c.237 0 .421-.038.552-.114.132-.076.209-.16.234-.251a.687.687 0 0 0 .005-.311 1.083 1.083 0 0 0-.066-.241z" opacity=".702"/>
</svg>
