<svg xmlns="http://www.w3.org/2000/svg" width="26" height="26">
    <path fill="#31539F" fill-rule="evenodd" d="M16.125 19.756a9.817 9.817 0 0 1-5.599-1.745l-1.092 1.093.226.225a.51.51 0 0 1 0 .719l-5.185 5.186A2.607 2.607 0 0 1 2.624 26c-.67 0-1.34-.255-1.851-.766a2.623 2.623 0 0 1 0-3.703l5.185-5.187a.51.51 0 0 1 .718 0l.226.227 1.093-1.092A9.825 9.825 0 0 1 6.25 9.878C6.25 4.431 10.68 0 16.125 0 21.569 0 26 4.431 26 9.878s-4.43 9.878-9.875 9.878zm-9.772-2.389l-4.862 4.882a1.607 1.607 0 0 0 0 2.267 1.604 1.604 0 0 0 2.266 0l4.88-4.864-2.284-2.285zm1.267-.077l1.095 1.095 1-.999a9.854 9.854 0 0 1-1.096-1.095l-.999.999zm8.505-16.275c-4.886 0-8.86 3.977-8.86 8.863 0 4.887 3.974 8.862 8.86 8.862 4.885 0 8.859-3.975 8.859-8.862 0-4.886-3.974-8.863-8.859-8.863zm6.596 12.596a7.533 7.533 0 0 1-4.571 3.572 7.573 7.573 0 0 1-2.023.277c-3.321 0-6.375-2.203-7.305-5.556C7.706 7.875 10.073 3.69 14.1 2.573a7.525 7.525 0 0 1 5.756.707 7.526 7.526 0 0 1 3.571 4.573 7.534 7.534 0 0 1-.706 5.758zm-.272-5.487a6.524 6.524 0 0 0-3.092-3.96 6.533 6.533 0 0 0-4.986-.613A6.574 6.574 0 0 0 9.8 11.632a6.577 6.577 0 0 0 6.327 4.812c.579 0 1.167-.078 1.751-.239a6.522 6.522 0 0 0 3.959-3.094 6.527 6.527 0 0 0 .612-4.987zm-6.324 5.855c-3.127 0-5.551-3.667-5.653-3.824a.506.506 0 0 1 0-.554c.102-.157 2.526-3.825 5.653-3.825 3.126 0 5.551 3.668 5.652 3.825.11.168.11.386 0 .554-.101.157-2.526 3.824-5.652 3.824zm0-7.187c-2.13 0-4.009 2.28-4.606 3.086.597.805 2.475 3.086 4.606 3.086s4.008-2.28 4.605-3.086c-.597-.806-2.474-3.086-4.605-3.086zm0 5.909a2.829 2.829 0 0 1-2.814-2.619v-.002a2.825 2.825 0 0 1 3.524-2.934h.001a2.822 2.822 0 0 1-.711 5.555zm0-4.63a1.81 1.81 0 0 0-1.786 1.537h.061a1.81 1.81 0 0 0 1.786-1.536l-.061-.001zm1.033.324a2.828 2.828 0 0 1-2.678 2.228c.286.627.92 1.062 1.645 1.062a1.809 1.809 0 0 0 1.033-3.29z"/>
</svg>
