<svg xmlns="http://www.w3.org/2000/svg" width="34" height="27">
    <path fill="#EB2D64" fill-rule="evenodd" d="M22.217 10.705c-.805.267-7.915 2.675-9.476 4.451a4.571 4.571 0 0 0-1.141 3.419 4.615 4.615 0 0 0 1.689 3.198 4.943 4.943 0 0 0 3.14 1.12 4.907 4.907 0 0 0 3.69-1.649c1.561-1.778 2.882-8.961 3.027-9.774a.676.676 0 0 0-.239-.64.721.721 0 0 0-.69-.125zm-3.177 9.648c-1.181 1.343-3.447 1.521-4.834.375a3.27 3.27 0 0 1-1.195-2.263 3.233 3.233 0 0 1 .807-2.418c.876-.997 4.74-2.595 7.71-3.649-.593 2.949-1.621 6.97-2.488 7.955zM17-.003C7.625-.003 0 7.49 0 16.701c0 3.513 1.187 7.071 3.343 10.016.132.182.347.29.577.29h26.159c.23 0 .445-.107.578-.29 2.156-2.945 3.342-6.529 3.342-10.093C33.999 7.456 26.374-.003 17-.003zm12.708 25.636H4.291c-1.856-2.657-2.875-5.815-2.875-8.932C1.416 8.247 8.407 1.368 17 1.368c8.592 0 15.583 6.842 15.583 15.254 0 3.167-1.019 6.354-2.875 9.011zM17 3.945c-6.584 0-11.938 5.239-11.938 11.678 0 .38.317.686.708.686a.697.697 0 0 0 .709-.686c0-5.682 4.72-10.306 10.521-10.306 5.801 0 10.522 4.607 10.522 10.269 0 .379.316.686.707.686.392 0 .71-.307.71-.686C28.938 9.166 23.583 3.945 17 3.945z"/>
</svg>
