<svg xmlns="http://www.w3.org/2000/svg" width="14" height="14">
    <path fill-rule="evenodd" d="M9.625 14h-5.25A4.375 4.375 0 0 1 0 9.625v-5.25A4.375 4.375 0 0 1 4.375 0h5.25A4.375 4.375 0 0 1 14 4.375v5.25A4.375 4.375 0 0 1 9.625 14zm3.063-9.625a3.066 3.066 0 0 0-3.063-3.062h-5.25a3.066 3.066 0 0 0-3.063 3.062v5.25a3.066 3.066 0 0 0 3.063 3.063h5.25a3.067 3.067 0 0 0 3.063-3.063v-5.25zm-1.925-.671a.466.466 0 1 1-.002-.932.466.466 0 0 1 .002.932zM7 10.5a3.5 3.5 0 1 1 0-7 3.5 3.5 0 0 1 0 7zm0-5.688A2.19 2.19 0 0 0 4.813 7 2.19 2.19 0 0 0 7 9.187 2.19 2.19 0 0 0 9.187 7 2.19 2.19 0 0 0 7 4.812z" opacity=".702"/>
</svg>
