<svg xmlns="http://www.w3.org/2000/svg" width="19" height="22">
    <path fill="#EB2D64" fill-rule="evenodd" d="M17.303 7.613v11.873C17.303 20.873 16.1 22 14.62 22H4.381c-1.481 0-2.684-1.127-2.684-2.514V7.613C.704 7.244 0 6.337 0 5.278v-.129c0-1.385 1.204-2.513 2.684-2.513h3.657C6.524 1.155 7.87 0 9.5 0c1.631 0 2.976 1.155 3.159 2.636h3.657c1.48 0 2.684 1.128 2.684 2.513v.129c0 1.059-.704 1.966-1.697 2.335zM2.969 19.486c0 .729.634 1.322 1.412 1.322H14.62c.778 0 1.411-.593 1.411-1.322V7.792H2.969v11.694zM9.5 1.192c-.927 0-1.701.622-1.872 1.444h3.744c-.171-.822-.945-1.444-1.872-1.444zm8.227 3.957c0-.728-.634-1.321-1.411-1.321H2.684c-.778 0-1.411.593-1.411 1.321v.129c0 .729.633 1.321 1.411 1.321h13.632c.777 0 1.411-.592 1.411-1.321v-.129zm-4.814 14.135c-.352 0-.637-.267-.637-.597v-6.71c0-.329.285-.596.637-.596.351 0 .636.267.636.596v6.71c0 .33-.285.597-.636.597zm-3.413 0c-.352 0-.636-.267-.636-.597v-6.71c0-.329.284-.596.636-.596.352 0 .637.267.637.596v6.71c0 .33-.285.597-.637.597zm-3.413 0c-.351 0-.636-.267-.636-.597v-6.71c0-.329.285-.596.636-.596.352 0 .637.267.637.596v6.71c0 .33-.285.597-.637.597z"/>
</svg>
