<svg xmlns="http://www.w3.org/2000/svg" width="22" height="22">
    <path fill-rule="evenodd" d="M18.629 3.084l-.025-.029A.827.827 0 0 0 18.541 3C16.571 1.141 13.916 0 11 0 4.935 0 0 4.935 0 11c0 2.915 1.141 5.568 2.998 7.539a.68.68 0 0 0 .057.065l.033.03A10.97 10.97 0 0 0 11 22c6.065 0 11-4.934 11-11 0-3.105-1.294-5.914-3.371-7.916zM11 1.505c2.261 0 4.339.794 5.971 2.118L3.623 16.971A9.452 9.452 0 0 1 1.505 11c0-5.235 4.259-9.495 9.495-9.495zm0 18.99a9.452 9.452 0 0 1-6.339-2.433L18.062 4.66A9.459 9.459 0 0 1 20.495 11c0 5.236-4.26 9.495-9.495 9.495z" opacity=".8"/>
</svg>
