<svg xmlns="http://www.w3.org/2000/svg" viewBox="0 0 35 35">
    <style>
        .st0{fill:#fff}
    </style>
    <g id="Layer_1">
        <path d="M32.3 18.9V8c0-2.7-2.1-4.9-4.9-4.9H5.1C2.3 3.2.2 5.3.2 8v15.5c0 2.7 2.1 4.9 4.9 4.9h17.5c1.3 1.5 3.3 2.5 5.4 2.5 3.8 0 6.8-3.1 6.8-6.9v-.1c0-1.9-1-3.8-2.5-5zM5.1 27.2c-2 0-3.6-1.6-3.6-3.6V8c0-1.9 1.6-3.6 3.6-3.6v.1h22.4c2 0 3.6 1.6 3.6 3.6v10c-1-.5-2.1-.8-3.2-.8-3.8 0-6.8 3.2-6.8 7 0 1 .3 2 .7 2.9H5.1zm28.4-3c-.1 3.1-2.6 5.5-5.7 5.5-2.5 0-4.8-2-5.4-4.3-.1-.4-.2-.9-.2-1.4.1-3.1 2.6-5.5 5.7-5.5.9 0 1.8.2 2.5.6 1.9 1 3.1 3 3.1 5.1z" class="st0"/>
        <path d="M24.6 16.9c.4 0 .7-.3.7-.6v-8c0-.4-.3-.7-.7-.7-.4 0-.7.3-.7.7v7.9c.1.4.4.7.7.7zM27.9 27.2c.4 0 .7-.3.7-.6v-5.1c0-.4-.3-.7-.7-.7-.4 0-.7.3-.7.7v5c0 .4.3.7.7.7z" class="st0"/>
        <path d="M24.7 24.1c0 .4.3.7.6.7h5.1c.4 0 .7-.3.7-.7 0-.4-.3-.7-.7-.7h-5c-.4 0-.7.3-.7.7zM16.3 7.6c-.4 0-.7.3-.7.7v15.2c0 .4.3.7.7.7.4 0 .7-.3.7-.7V8.2c0-.3-.3-.6-.7-.6zM8 7.6c-.4 0-.7.3-.7.7v15.2c0 .4.3.7.7.7.4 0 .7-.3.7-.7V8.2c-.1-.3-.3-.6-.7-.6z" class="st0"/>
    </g>
</svg>
