<svg xmlns="http://www.w3.org/2000/svg" width="28" height="27">
    <path fill="#FFF" fill-rule="evenodd" d="M18.004 18.718v-.49a5.02 5.02 0 0 0 .397-.363 7.307 7.307 0 0 0 1.834-4.064 3.553 3.553 0 0 0 2.3-1.376c.768-1.093.837-2.666.196-4.639a.534.534 0 0 0-.212-.278l-.291-.197a7.263 7.263 0 0 0-1.717-4.869C19.085.827 16.896.011 13.998 0 11.104 0 8.91.827 7.484 2.421A7.258 7.258 0 0 0 5.767 7.29l-.292.197a.533.533 0 0 0-.211.278c-.642 1.983-.573 3.545.196 4.639a3.573 3.573 0 0 0 2.3 1.392 7.309 7.309 0 0 0 1.839 4.069c.126.128.258.248.397.363v.49c-2.029.395-10.132 2.309-9.995 7.749 0 .294.238.533.53.533h26.938a.531.531 0 0 0 .529-.533c.138-5.44-7.965-7.354-9.994-7.749zM7.442 12.607a2.303 2.303 0 0 1-1.124-.827l.027.006c-.53-.779-.578-1.958-.106-3.515l.387-.261a.536.536 0 0 0 .233-.496 6.327 6.327 0 0 1 1.442-4.389c1.197-1.365 3.121-2.048 5.697-2.058 2.575-.011 4.499.693 5.718 2.058a6.33 6.33 0 0 1 1.441 4.389.534.534 0 0 0 .233.496l.387.261c.472 1.552.44 2.736-.106 3.515a2.32 2.32 0 0 1-1.129.826c.64-.732.952-1.696.864-2.666a2.496 2.496 0 0 0-.853-1.493c-.228-5.333-3.943-5.931-5.543-5.931a6.582 6.582 0 0 0-1.012.075 6.614 6.614 0 0 0-1.013-.075c-1.59 0-5.299.587-5.543 5.931a2.495 2.495 0 0 0-.864 1.488c-.089.97.224 1.934.864 2.666zm12.056-4.373a10.869 10.869 0 0 1-6.333-1.6.528.528 0 0 0-.689.069C11.417 7.85 9.482 8.116 8.549 8.175c.286-3.77 2.555-4.591 4.462-4.591.304-.003.607.022.907.074.07.015.142.015.212 0 .299-.051.602-.076.906-.074 1.892 0 4.171.842 4.436 4.645l.026.005zM8.735 12.708l.021.005a.538.538 0 0 0-.132-.357c-.726-.837-1.06-1.6-.97-2.229.043-.35.215-.672.482-.901.699 0 3.18-.133 4.77-1.514a11.9 11.9 0 0 0 5.882 1.599c.355 0 .715 0 1.092-.059.26.224.429.535.477.875.09.619-.244 1.392-.97 2.229a.533.533 0 0 0-.132.357v.278l-3.085 1.663a1.521 1.521 0 0 0-2.158.06 1.545 1.545 0 0 0 .059 2.172 1.521 1.521 0 0 0 2.158-.06c.269-.286.419-.664.418-1.057a1.729 1.729 0 0 0 0-.144l2.433-1.312a5.883 5.883 0 0 1-1.421 2.816 4.706 4.706 0 0 1-3.513 1.323h-.265a4.72 4.72 0 0 1-3.508-1.317c-1.675-1.68-1.638-4.401-1.638-4.427zm6.852 3.061a.473.473 0 0 1-.471.475.474.474 0 0 1 0-.949c.26 0 .471.212.471.474zm-2.12 10.132H1.077c.419-4.005 6.89-5.679 8.914-6.111v.955c0 1.21 1.463 2.133 3.476 2.288v2.868zm-2.416-5.156v-1.84a6.375 6.375 0 0 0 2.814.597h.265a6.378 6.378 0 0 0 2.814-.597v1.84c0 .506-1.15 1.237-2.946 1.237-1.797 0-2.947-.731-2.947-1.237zm3.476 5.173v-2.891c2.014-.138 3.477-1.066 3.477-2.288v-.933c2.04.427 8.479 2.101 8.914 6.112H14.527z"/>
</svg>
