<svg xmlns="http://www.w3.org/2000/svg" width="28" height="24">
    <path fill="#FFF" fill-rule="evenodd" d="M2.614 22.966c-.826.011-1.741-.234-2.232-.864-1.971-2.524 3.99-8.819 10.597-13.464A47.09 47.09 0 0 1 21.2 3.043c1.384-.507 2.914-.991 4.418-.93.772.031 1.594.31 2.058.921.575.754.279 1.74-.139 2.497a.87.87 0 0 1-.238.298c-.106.075-.257.106-.373.044-.116-.061-.166-.194-.182-.319-.047-.4.22-.691.377-1.037.099-.216.147-.458.099-.689-.531-2.477-5.67-.047-7.001.525-3.111 1.338-6.012 3-8.753 4.925-3.751 2.634-7.67 6.031-10.15 10.038-.584.944-.798 2.616.924 2.867.362.054.729-.026 1.096-.042.145-.006.305.003.417.093.219.178-.004.457-.192.561-.13.073-.282.106-.433.129a3.846 3.846 0 0 1-.514.042zm11.558 1.036c-7.011.02-12.712-5.335-12.734-11.964C1.418 5.411 7.085.023 14.097.004c6.975-.02 12.661 5.282 12.733 11.874v.125c.004 6.614-5.659 11.983-12.658 11.999zM14.173.716C7.576.697 2.211 5.736 2.192 11.973c-.02 6.235 5.312 11.305 11.909 11.324 6.563.019 11.913-4.97 11.982-11.172v-.122C26.082 5.783 20.758.736 14.176.716h-.003zm11.722 11.871H2.172c-.263.053-.529-.083-.592-.303-.063-.221.098-.444.362-.496a.557.557 0 0 1 .23 0h23.461c1.128 0 1.027-.339 1.027.408.001.673-.656.484-.762.391h-.003zM23.859 5.43H4.766a.395.395 0 0 1-.476-.304.412.412 0 0 1 .291-.497.413.413 0 0 1 .185 0h18.882c.907 0 .298.893.214.801h-.003zm-.003 13.874H4.542a.4.4 0 0 1-.482-.303.412.412 0 0 1 .295-.497.37.37 0 0 1 .187 0h19.1c.918 0 .303.892.216.8h-.002zm-9.687 4.643a.641.641 0 0 1-.334-.095C9.95 21.397 7.54 16.863 7.54 12.009c0-4.856 2.413-9.385 6.298-11.836a.624.624 0 0 1 .832.15c0 .006 0 .006.004.006a.357.357 0 0 1-.01.524c-.038.035-.27-.153-.32-.135-3.553 2.245-5.953 6.825-5.953 11.294 0 4.471 2.399 9.042 5.952 11.282.278.18.516.134.331.398a.639.639 0 0 1-.503.255h-.002zm.067 0a.638.638 0 0 1-.502-.255c-.185-.264.053-.218.33-.398 3.553-2.24 5.952-6.811 5.952-11.282 0-4.469-2.399-9.049-5.954-11.294-.049-.018-.28.17-.319.135a.357.357 0 0 1-.009-.524c.004 0 .004 0 .004-.006a.623.623 0 0 1 .831-.15c3.886 2.451 6.299 6.98 6.299 11.836 0 4.854-2.41 9.388-6.296 11.843a.638.638 0 0 1-.333.095h-.003z"/>
</svg>
