<svg xmlns="http://www.w3.org/2000/svg" width="29" height="29">
    <path fill="#FFF" fill-rule="evenodd" d="M14.502 29v-.697L14.5 29C6.506 29 .001 22.495 0 14.5 0 6.505 6.505 0 14.5 0S29 6.505 29 14.5 22.496 29 14.502 29zM14.5 1.393c-7.227 0-13.106 5.88-13.106 13.107 0 7.227 5.88 13.106 13.106 13.106h.002c7.226 0 13.104-5.879 13.104-13.106S21.727 1.393 14.5 1.393zm4.778 16.912c0 2.299-1.844 4.179-4.208 4.448v1.439a.697.697 0 1 1-1.394 0v-1.463c-2.241-.371-3.954-2.207-3.954-4.424a.697.697 0 1 1 1.394 0c0 1.451 1.093 2.664 2.56 3.004v-6.191c-2.241-.37-3.954-2.207-3.954-4.423 0-2.217 1.713-4.053 3.954-4.423V4.808a.697.697 0 1 1 1.394 0v1.444c1.196.136 2.303.666 3.088 1.547a.696.696 0 1 1-1.04.927c-.523-.586-1.251-.957-2.048-1.082v6.213c2.364.269 4.208 2.15 4.208 4.448zm-1.394 0c0-1.535-1.22-2.805-2.814-3.055v6.111c1.595-.251 2.814-1.521 2.814-3.056zm-6.768-7.61c0 1.451 1.093 2.664 2.56 3.004V7.69c-1.467.341-2.56 1.553-2.56 3.005z"/>
</svg>
