<svg xmlns="http://www.w3.org/2000/svg" width="30" height="27">
    <path fill="#FFF" fill-rule="evenodd" d="M28.633 22.512l-1.298-2.608c-.904-1.818-3.155-2.922-4.911-3.075-.62-.053-1.792-.259-2.788-.49-.8-.186-1.264-.332-1.521-.428.062-.229.178-.459.355-.699 1.98-1.543 3.16-4.119 3.16-6.908 0-4.577-3.189-8.301-7.107-8.301S7.416 3.727 7.416 8.304c0 2.79 1.179 5.365 3.159 6.91.174.23.295.466.359.706-.264.101-.733.25-1.544.438-1.116.257-2.245.462-2.814.51-1.703.144-4.002 1.285-4.915 3.12L.368 22.666c-.483.968-.489 2.084-.013 2.843.582.93 1.492 1.487 2.436 1.487h23.418c.941 0 1.851-.555 2.436-1.487.478-.762.473-2.023-.012-2.997zm-1.111 2.305c-.262.418-.747.867-1.313.867H2.791c-.568 0-1.051-.447-1.313-.866-.229-.364-.196-1.026.079-1.578l1.293-2.676c.67-1.348 2.477-2.272 3.838-2.389.771-.064 2.099-.33 3.002-.538 1.916-.444 2.272-.743 2.389-.842a.66.66 0 0 0 .232-.514c-.015-.685-.264-1.337-.734-1.928a.567.567 0 0 0-.128-.126c-1.697-1.292-2.711-3.505-2.711-5.922 0-3.854 2.595-6.989 5.785-6.989 3.191 0 5.784 3.135 5.784 6.988 0 2.416-1.012 4.63-2.71 5.919a.705.705 0 0 0-.12.118c-.477.597-.726 1.247-.742 1.931a.652.652 0 0 0 .229.51c.113.097.453.39 2.37.836 1.049.243 2.301.461 2.976.519 1.372.118 3.183 1.029 3.839 2.349l1.298 2.608c.301.605.281 1.394.075 1.723z"/>
</svg>
