<svg xmlns="http://www.w3.org/2000/svg" width="34" height="33" viewBox="0 0 34 33">
  <metadata><?xpacket begin="﻿" id="W5M0MpCehiHzreSzNTczkc9d"?>
<x:xmpmeta xmlns:x="adobe:ns:meta/" x:xmptk="Adobe XMP Core 5.6-c138 79.159824, 2016/09/14-01:09:01 ">
   <rdf:RDF xmlns:rdf="http://www.w3.org/1999/02/22-rdf-syntax-ns#">
      <rdf:Description rdf:about=""/>
   </rdf:RDF>
</x:xmpmeta>                                          
<?xpacket end="w"?></metadata>
<defs>
    <style>
      .cls-1 {
        fill: #000000;
        fill-rule: evenodd;
      }
    </style>
  </defs>
  <path id="_-e-profile" data-name="-e-profile" class="cls-1" d="M1628.41,998.412a15.7,15.7,0,0,0,.13-1.94,15.3,15.3,0,0,0-2.85-8.869,2.679,2.679,0,0,0-.27-3.509,17.657,17.657,0,0,0-24.84.025,2.7,2.7,0,0,0-.27,3.493,15.267,15.267,0,0,0-2.84,8.86,15.67,15.67,0,0,0,.12,1.938,7.419,7.419,0,0,0,5.8,12.01,3.359,3.359,0,0,0,2.86,1.58,3.553,3.553,0,0,0,.57-0.05,3.4,3.4,0,0,0,2.8-3.9l-2.01-11.844a3.41,3.41,0,0,0-6.13-1.4,3.258,3.258,0,0,0-.55,1.2,7.553,7.553,0,0,0-2.08,1.148c-0.01-.226-0.02-0.452-0.02-0.678a13.886,13.886,0,0,1,2.54-7.988,2.711,2.711,0,0,0,3.07-.535,12.168,12.168,0,0,1,17.13-.018,2.721,2.721,0,0,0,3.06.537,13.926,13.926,0,0,1,2.54,8c0,0.227-.01.453-0.02,0.679a7.3,7.3,0,0,0-2.08-1.148,3.382,3.382,0,0,0-2.75-2.572,3.535,3.535,0,0,0-.57-0.047,3.374,3.374,0,0,0-3.35,2.822l-2.01,11.844a3.392,3.392,0,0,0,2.79,3.9,3.657,3.657,0,0,0,.57.05,3.389,3.389,0,0,0,2.87-1.58A7.418,7.418,0,0,0,1628.41,998.412Zm-24.5-3.647a2.139,2.139,0,0,1,.34-0.027,2.024,2.024,0,0,1,2.01,1.692l2.01,11.85a2.038,2.038,0,0,1-3.83,1.25l-0.03-.07a1.357,1.357,0,0,1-.09-0.23,2.288,2.288,0,0,1-.08-0.28l-2-11.845v0a1.406,1.406,0,0,1-.02-0.289,2.083,2.083,0,0,1,.01-0.243V996.5A2.048,2.048,0,0,1,1603.91,994.765Zm-2.99,2.7,0.98,5.787,0.98,5.79a6.072,6.072,0,0,1-5.43-5.04,6.011,6.011,0,0,1,.52-3.64,11.36,11.36,0,0,1,1.06-1.542A6.061,6.061,0,0,1,1600.92,997.463Zm21.61-10.491a13.542,13.542,0,0,0-19.06.02,1.392,1.392,0,0,1-1.92,0,1.342,1.342,0,0,1,0-1.914,16.279,16.279,0,0,1,22.91-.025,1.37,1.37,0,0,1,.4.957,1.336,1.336,0,0,1-.4.959A1.407,1.407,0,0,1,1622.53,986.972Zm-3.12,23.648a2.041,2.041,0,0,1-1.68-2.34l2.01-11.85a2.024,2.024,0,0,1,2.01-1.692,2.027,2.027,0,0,1,2.02,1.763l0.01,0.069c0,0.089.01,0.167,0.01,0.243-0.01.1-.01,0.193-0.02,0.292l-2.01,11.845v0.01c-0.02.09-.05,0.18-0.07,0.27-0.03.07-.06,0.15-0.1,0.23l-0.04.08A2.026,2.026,0,0,1,1619.41,1010.62Zm9.15-6.62a6.092,6.092,0,0,1-5.43,5.04l0.98-5.79,0.98-5.786a6.129,6.129,0,0,1,1.88,1.353,5.694,5.694,0,0,1,1.06,1.543A6.089,6.089,0,0,1,1628.56,1004Z" transform="translate(-1596 -979)"/>
</svg>
