<svg xmlns="http://www.w3.org/2000/svg" width="33" height="26">
    <path fill="#FFF" fill-rule="evenodd" d="M30.612 13.574v2.439h-2.039v-2.439h-2.379v-2.09h2.379V9.045h2.039v2.439h2.379v2.09h-2.379zm-17.635 12.11C6.095 25.684.515 19.965.515 12.91.515 5.855 6.095.136 12.977.136c3.395 0 6.473 1.392 8.72 3.65l-2.814 3.136c-1.506-1.561-3.596-2.528-5.906-2.528-4.588 0-8.308 3.813-8.308 8.516 0 4.703 3.719 8.516 8.308 8.516 3.72 0 6.868-2.506 7.927-5.961h-7.096V11.49h11.63v3.975c-1.154 5.83-6.432 10.219-12.461 10.219z"/>
</svg>
