<svg xmlns="http://www.w3.org/2000/svg" width="23" height="33">
    <path fill="#FFF" fill-rule="evenodd" d="M20.7 19.645l-9.201 13.352-9.213-13.37C-1.152 15.024-.652 7.425 3.367 3.387A11.403 11.403 0 0 1 11.499.002a11.4 11.4 0 0 1 8.132 3.385c4.02 4.038 4.519 11.637 1.069 16.258zM18.784 4.239a10.217 10.217 0 0 0-7.285-3.032 10.213 10.213 0 0 0-7.283 3.032C.589 7.883.141 14.746 3.26 18.923l8.239 11.957 8.228-11.939c3.131-4.195 2.684-11.058-.943-14.702zm-7.178 11.43c-2.315 0-4.198-1.894-4.198-4.218 0-2.325 1.883-4.218 4.198-4.218 2.313 0 4.197 1.893 4.197 4.218 0 2.324-1.884 4.218-4.197 4.218zm0-7.231a3.01 3.01 0 0 0-3 3.013 3.01 3.01 0 0 0 3 3.013 3.01 3.01 0 0 0 2.998-3.013 3.01 3.01 0 0 0-2.998-3.013z"/>
</svg>
