<svg xmlns="http://www.w3.org/2000/svg" width="18" height="26">
    <path fill="#FFF" fill-rule="evenodd" d="M16.199 15.479L9 25.998 1.789 15.464C-.901 11.837-.51 5.85 2.635 2.669A8.89 8.89 0 0 1 9 .002c2.403 0 4.664.947 6.363 2.667 3.146 3.181 3.537 9.168.836 12.81zM14.7 3.34A7.964 7.964 0 0 0 9 .951 7.963 7.963 0 0 0 3.3 3.34C.46 6.212.111 11.618 2.551 14.909L9 24.329l6.438-9.405c2.451-3.306 2.101-8.712-.738-11.584zm-5.617 9.005c-1.811 0-3.285-1.491-3.285-3.323 0-1.832 1.474-3.323 3.285-3.323 1.811 0 3.285 1.491 3.285 3.323 0 1.832-1.474 3.323-3.285 3.323zm0-5.697c-1.294 0-2.347 1.065-2.347 2.374 0 1.309 1.053 2.374 2.347 2.374 1.293 0 2.346-1.065 2.346-2.374 0-1.309-1.053-2.374-2.346-2.374z"/>
</svg>
