<svg version="1.1" id="Layer_1" xmlns="http://www.w3.org/2000/svg" xmlns:xlink="http://www.w3.org/1999/xlink" x="0px" y="0px"
	 viewBox="0 0 35 35" style="enable-background:new 0 0 35 35;" xml:space="preserve">
<style type="text/css">
	.st0{fill:#FFFFFF;}
</style>
<g id="Layer_1_1_">
	<g>
		<path class="st0" d="M32.3,18.9V8c0-2.7-2.1-4.9-4.9-4.9H5.1C2.3,3.2,0.2,5.3,0.2,8v15.5c0,2.7,2.1,4.9,4.9,4.9h17.5
			c1.3,1.5,3.3,2.5,5.4,2.5c3.8,0,6.8-3.1,6.8-6.9v-0.1C34.8,22,33.8,20.1,32.3,18.9z M5.1,27.2c-2,0-3.6-1.6-3.6-3.6V8
			c0-1.9,1.6-3.6,3.6-3.6v0.1h22.4c2,0,3.6,1.6,3.6,3.6v10c-1-0.5-2.1-0.8-3.2-0.8c-3.8,0-6.8,3.2-6.8,7c0,1,0.3,2,0.7,2.9H5.1z
			 M33.5,24.2c-0.1,3.1-2.6,5.5-5.7,5.5c-2.5,0-4.8-2-5.4-4.3c-0.1-0.4-0.2-0.9-0.2-1.4c0.1-3.1,2.6-5.5,5.7-5.5
			c0.9,0,1.8,0.2,2.5,0.6C32.3,20.1,33.5,22.1,33.5,24.2L33.5,24.2z" fill="#FFFFFF" />
		<path class="st0" d="M24.6,16.9c0.4,0,0.7-0.3,0.7-0.6v-8c0-0.4-0.3-0.7-0.7-0.7c-0.4,0-0.7,0.3-0.7,0.7v7.9
			C24,16.6,24.3,16.9,24.6,16.9z" fill="#FFFFFF" />
		<path class="st0" d="M27.9,27.2c0.4,0,0.7-0.3,0.7-0.6v-5.1c0-0.4-0.3-0.7-0.7-0.7c-0.4,0-0.7,0.3-0.7,0.7v5
			C27.2,26.9,27.5,27.2,27.9,27.2z" fill="#FFFFFF" />
		<path class="st0" d="M24.7,24.1c0,0.4,0.3,0.7,0.6,0.7h5.1c0.4,0,0.7-0.3,0.7-0.7c0-0.4-0.3-0.7-0.7-0.7h-5
			C25,23.4,24.7,23.7,24.7,24.1z" fill="#FFFFFF" />
		<path class="st0" d="M16.3,7.6c-0.4,0-0.7,0.3-0.7,0.7v15.2c0,0.4,0.3,0.7,0.7,0.7s0.7-0.3,0.7-0.7V8.2C17,7.9,16.7,7.6,16.3,7.6z" fill="#FFFFFF" />
		<path class="st0" d="M8,7.6c-0.4,0-0.7,0.3-0.7,0.7v15.2c0,0.4,0.3,0.7,0.7,0.7s0.7-0.3,0.7-0.7V8.2C8.6,7.9,8.4,7.6,8,7.6z" fill="#FFFFFF" />
	</g>
</g>
<g id="Layer_2">
</g>
</svg>
