<svg xmlns="http://www.w3.org/2000/svg" width="34" height="33" viewBox="0 0 34 33">
  <path id="_-e-profile" data-name="-e-profile" class="cls-1" d="M2687.41,802.412a15.674,15.674,0,0,0,.12-1.939,15.3,15.3,0,0,0-2.84-8.871,2.677,2.677,0,0,0-.27-3.508,17.656,17.656,0,0,0-24.84.026,2.7,2.7,0,0,0-.27,3.492,15.269,15.269,0,0,0-2.84,8.86,15.67,15.67,0,0,0,.12,1.938,7.42,7.42,0,0,0,5.8,12.012,3.364,3.364,0,0,0,2.86,1.578,3.535,3.535,0,0,0,.57-0.047,3.4,3.4,0,0,0,2.8-3.9l-2.01-11.848a3.41,3.41,0,0,0-6.13-1.4,3.258,3.258,0,0,0-.55,1.2,7.58,7.58,0,0,0-2.08,1.148c-0.01-.226-0.02-0.451-0.02-0.677a13.889,13.889,0,0,1,2.54-7.989,2.7,2.7,0,0,0,1.14.258,2.726,2.726,0,0,0,1.93-.793,12.168,12.168,0,0,1,17.13-.018,2.721,2.721,0,0,0,3.06.537,13.927,13.927,0,0,1,2.54,8c0,0.227-.01.453-0.02,0.678a7.324,7.324,0,0,0-2.08-1.148,3.382,3.382,0,0,0-2.75-2.572,3.535,3.535,0,0,0-.57-0.047,3.374,3.374,0,0,0-3.35,2.821l-2.01,11.848a3.391,3.391,0,0,0,2.79,3.9,3.535,3.535,0,0,0,.57.047,3.4,3.4,0,0,0,2.87-1.578A7.419,7.419,0,0,0,2687.41,802.412Zm-24.5-3.646a2.037,2.037,0,0,1,2.35,1.664l2.01,11.848a2.039,2.039,0,0,1-3.83,1.252l-0.03-.07a1.317,1.317,0,0,1-.09-0.229,2.605,2.605,0,0,1-.08-0.278l-2-11.849v0a1.411,1.411,0,0,1-.02-0.289,2.066,2.066,0,0,1,.01-0.242V800.5A2.045,2.045,0,0,1,2662.91,798.766Zm-3,2.7,0.99,5.791,0.98,5.79a6.081,6.081,0,0,1-5.43-5.045,6.011,6.011,0,0,1,.52-3.64,11.418,11.418,0,0,1,1.06-1.541A6.135,6.135,0,0,1,2659.91,801.463Zm21.62-10.491a13.542,13.542,0,0,0-19.06.02,1.392,1.392,0,0,1-1.92,0,1.342,1.342,0,0,1,0-1.914,16.281,16.281,0,0,1,22.91-.025,1.372,1.372,0,0,1,.4.958,1.334,1.334,0,0,1-.4.958A1.406,1.406,0,0,1,2681.53,790.972Zm-3.12,23.646a2.036,2.036,0,0,1-1.68-2.34l2.01-11.848a2.025,2.025,0,0,1,2.01-1.693,1.951,1.951,0,0,1,.34.029,2.033,2.033,0,0,1,1.68,1.735l0.01,0.07c0,0.088.01,0.166,0.01,0.242-0.01.1-.01,0.192-0.02,0.291l-2.01,11.847v0.009a2.253,2.253,0,0,1-.08.268,1.333,1.333,0,0,1-.09.231l-0.04.081A2.02,2.02,0,0,1,2678.41,814.618Zm9.15-6.619a6.1,6.1,0,0,1-5.43,5.045l0.98-5.79,0.98-5.79a6.146,6.146,0,0,1,1.88,1.353,5.469,5.469,0,0,1,1.06,1.542A6.089,6.089,0,0,1,2687.56,808Z" transform="translate(-2655 -783)" fill="#ffffff" />
</svg>
