<svg xmlns="http://www.w3.org/2000/svg" width="30" height="25">
    <path fill="#FFF" fill-rule="evenodd" d="M28.384.577a11.651 11.651 0 0 1-3.74 1.466A5.8 5.8 0 0 0 20.35.135c-3.251 0-5.886 2.705-5.886 6.039 0 .473.052.934.152 1.376-4.89-.252-9.227-2.657-12.13-6.31a6.113 6.113 0 0 0-.795 3.035 6.076 6.076 0 0 0 2.617 5.026 5.764 5.764 0 0 1-2.666-.758v.076c0 2.926 2.029 5.366 4.72 5.923a5.812 5.812 0 0 1-1.55.212c-.38 0-.747-.04-1.108-.11.749 2.399 2.922 4.145 5.496 4.196a11.624 11.624 0 0 1-7.308 2.583c-.475 0-.944-.028-1.404-.082a16.361 16.361 0 0 0 9.021 2.713c10.825 0 16.744-9.203 16.744-17.184l-.019-.783a12.029 12.029 0 0 0 2.941-3.122c-1.056.48-2.188.806-3.379.952a6.05 6.05 0 0 0 2.588-3.34z"/>
</svg>
