<svg xmlns="http://www.w3.org/2000/svg" width="23" height="35" viewBox="0 0 23 35">
  <metadata><?xpacket begin="﻿" id="W5M0MpCehiHzreSzNTczkc9d"?>
<x:xmpmeta xmlns:x="adobe:ns:meta/" x:xmptk="Adobe XMP Core 5.6-c138 79.159824, 2016/09/14-01:09:01">
   <rdf:RDF xmlns:rdf="http://www.w3.org/1999/02/22-rdf-syntax-ns#">
      <rdf:Description rdf:about=""/>
   </rdf:RDF>
</x:xmpmeta>
                                                                                                     
                                                                                                    
                           
<?xpacket end="w"?></metadata>
<defs>
    <style>
      .cls-1 {
        fill: #000000;
        fill-rule: evenodd;
      }
    </style>
  </defs>
  <path id="_107" data-name="107" class="cls-1" d="M3072,1014h-19a2.055,2.055,0,0,1-2-2.1V981.1a2.056,2.056,0,0,1,2-2.1h19a2.056,2.056,0,0,1,2,2.1v30.8A2.055,2.055,0,0,1,3072,1014Zm-19-33.6a0.686,0.686,0,0,0-.67.7v30.8a0.683,0.683,0,0,0,.67.7h19a0.683,0.683,0,0,0,.67-0.7V981.1a0.686,0.686,0,0,0-.67-0.7h-19Zm9.5,30.316a8.691,8.691,0,1,1,8.29-8.68A8.5,8.5,0,0,1,3062.5,1010.72Zm0-15.964a7.29,7.29,0,1,0,6.95,7.284A7.132,7.132,0,0,0,3062.5,994.756Zm0-3.589a4.381,4.381,0,1,1,4.18-4.377A4.282,4.282,0,0,1,3062.5,991.167Zm0-7.353a2.979,2.979,0,1,0,2.84,2.976A2.918,2.918,0,0,0,3062.5,983.814Zm0,22.506a4.38,4.38,0,1,1,4.18-4.37A4.278,4.278,0,0,1,3062.5,1006.32Zm0-7.35a2.978,2.978,0,1,0,2.84,2.98A2.915,2.915,0,0,0,3062.5,998.97Z" transform="translate(-3051 -979)"/>
</svg>
