<svg xmlns="http://www.w3.org/2000/svg" width="32" height="19">
    <path fill="#FFF" fill-rule="evenodd" d="M31.829 17.162a2.284 2.284 0 0 0-.109-.217c-.555-1.041-1.616-2.319-3.182-3.834l-.033-.034-.017-.017-.016-.018h-.017c-.711-.705-1.161-1.179-1.349-1.422-.345-.463-.422-.931-.234-1.405.133-.359.633-1.116 1.499-2.272.456-.613.817-1.104 1.083-1.474 1.922-2.66 2.755-4.36 2.499-5.1l-.099-.173c-.067-.104-.239-.199-.516-.286-.278-.087-.633-.101-1.067-.043l-4.797.034c-.078-.028-.189-.026-.334.009l-.216.052-.084.044-.066.052a.721.721 0 0 0-.183.182 1.204 1.204 0 0 0-.167.303 28.918 28.918 0 0 1-1.782 3.903 37.638 37.638 0 0 1-1.133 1.864c-.345.526-.633.914-.866 1.162a6.145 6.145 0 0 1-.634.599c-.188.15-.333.214-.432.19-.1-.023-.195-.046-.284-.069a1.149 1.149 0 0 1-.375-.425 1.97 1.97 0 0 1-.191-.676 7.99 7.99 0 0 1-.059-.703c-.005-.196-.002-.474.009-.833.011-.358.017-.601.017-.728 0-.439.008-.916.024-1.431l.042-1.223c.011-.3.017-.618.017-.954 0-.335-.02-.598-.059-.789a2.792 2.792 0 0 0-.174-.555.923.923 0 0 0-.342-.416 1.89 1.89 0 0 0-.558-.234c-.588-.139-1.338-.214-2.249-.226-2.066-.023-3.393.116-3.982.417-.233.127-.444.3-.632.52-.2.254-.228.393-.084.416.667.104 1.138.353 1.416.746l.1.208c.078.15.156.417.233.798.078.381.128.804.15 1.266.056.844.056 1.567 0 2.168-.055.601-.108 1.07-.158 1.405-.05.335-.125.607-.225.815a3.68 3.68 0 0 1-.2.382.282.282 0 0 1-.083.086 1.197 1.197 0 0 1-.45.087c-.156 0-.344-.081-.566-.243a4.05 4.05 0 0 1-.692-.668c-.238-.283-.508-.679-.808-1.188a21.343 21.343 0 0 1-.933-1.803l-.266-.504a42.26 42.26 0 0 1-.683-1.413 27.876 27.876 0 0 1-.766-1.795 1.138 1.138 0 0 0-.4-.555l-.083-.053a1.144 1.144 0 0 0-.267-.147 1.78 1.78 0 0 0-.383-.113L1.068.866c-.466 0-.783.11-.949.33L.052 1.3a.58.58 0 0 0-.05.277c0 .127.033.283.1.468a57.975 57.975 0 0 0 2.174 4.718c.783 1.515 1.463 2.735 2.04 3.66a44.02 44.02 0 0 0 1.766 2.619c.6.821.997 1.347 1.191 1.578.195.232.348.405.459.52l.416.416c.267.278.658.611 1.175.998.516.387 1.088.769 1.716 1.145.627.375 1.357.682 2.19.919a7.295 7.295 0 0 0 2.432.286h1.916c.389-.035.683-.162.883-.382l.067-.086a1.19 1.19 0 0 0 .124-.321c.039-.144.059-.304.059-.477a5.914 5.914 0 0 1 .108-1.344c.083-.399.177-.699.283-.902.106-.202.226-.373.358-.511.134-.139.228-.223.284-.252a.946.946 0 0 1 .133-.06c.266-.093.58-.003.941.269.361.271.7.607 1.017 1.006.316.399.697.847 1.141 1.344.444.497.833.867 1.166 1.11l.333.208c.222.139.511.266.867.382.354.115.665.144.932.086l4.265-.069c.422 0 .75-.073.983-.217.233-.144.371-.304.416-.477.045-.173.047-.37.009-.59a2.324 2.324 0 0 0-.117-.459z"/>
</svg>
